<svg xmlns="http://www.w3.org/2000/svg" width="820" height="300" font-family="Segoe UI, Microsoft YaHei, sans-serif">
<rect width="820" height="300" fill="white"/>
<line x1="48" y1="235.0" x2="772" y2="235.0" stroke="#ddd" stroke-width="1"/>
<text x="42" y="239.0" font-size="11" fill="#666" text-anchor="end">-1</text>
<line x1="48" y1="192.5" x2="772" y2="192.5" stroke="#ddd" stroke-width="1"/>
<text x="42" y="196.5" font-size="11" fill="#666" text-anchor="end">-0.5</text>
<line x1="48" y1="150.0" x2="772" y2="150.0" stroke="#ddd" stroke-width="1"/>
<text x="42" y="154.0" font-size="11" fill="#666" text-anchor="end">0</text>
<line x1="48" y1="107.5" x2="772" y2="107.5" stroke="#ddd" stroke-width="1"/>
<text x="42" y="111.5" font-size="11" fill="#666" text-anchor="end">0.5</text>
<line x1="48" y1="65.0" x2="772" y2="65.0" stroke="#ddd" stroke-width="1"/>
<text x="42" y="69.0" font-size="11" fill="#666" text-anchor="end">1</text>
<line x1="48" y1="150.0" x2="772" y2="150.0" stroke="#999" stroke-width="1.2"/>
<polyline points="48.0,-14.2 59.5,88.1 71.0,142.9 82.5,50.2 94.0,146.6 105.5,75.0 117.0,147.4 128.4,48.0 139.9,-16.1 151.4,80.1 162.9,143.8 174.4,41.2 185.9,145.5 197.4,90.3 208.9,143.6 220.4,48.9 231.9,-15.0 243.4,84.1 254.9,-12.9 266.3,45.7 277.8,-11.8 289.3,86.9 300.8,-13.4 312.3,41.3 323.8,-13.7 335.3,89.2 346.8,146.7 358.3,40.8 369.8,-13.9 381.3,82.8 392.8,-15.9 404.3,51.0 415.7,148.4 427.2,86.4 438.7,144.6 450.2,49.8 461.7,-14.7 473.2,75.7 484.7,-14.8 496.2,42.8 507.7,142.0 519.2,86.6 530.7,-17.4 542.2,56.4 553.7,-15.8 565.1,75.4 576.6,146.4 588.1,55.7 599.6,148.7 611.1,81.3 622.6,142.3 634.1,52.5 645.6,-17.2 657.1,79.6 668.6,-16.5 680.1,49.5 691.6,144.4 703.0,87.4 714.5,142.9 726.0,49.3 737.5,-12.6 749.0,79.7 760.5,-12.9 772.0,40.2" fill="none" stroke="#4C8BF5" stroke-width="1"/>
<polyline points="48.0,179.4 59.5,176.5 71.0,171.1 82.5,163.6 94.0,154.7 105.5,145.3 117.0,136.4 128.4,128.9 139.9,123.5 151.4,120.7 162.9,120.7 174.4,123.5 185.9,128.8 197.4,136.3 208.9,145.2 220.4,154.8 231.9,163.8 243.4,171.2 254.9,176.4 266.3,179.0 277.8,179.0 289.3,176.4 300.8,171.4 312.3,164.1 323.8,155.0 335.3,145.0 346.8,135.6 358.3,128.3 369.8,123.7 381.3,121.7 392.8,121.8 404.3,123.7 415.7,127.6 427.2,134.4 438.7,144.3 450.2,156.1 461.7,167.2 473.2,174.2 484.7,175.1 496.2,169.9 507.7,161.0 519.2,152.2 530.7,146.6 542.2,145.2 553.7,146.9 565.1,149.5 576.6,151.0 588.1,150.8 599.6,149.5 611.1,148.1 622.6,147.6 634.1,148.0 645.6,148.7 657.1,149.4 668.6,149.9 680.1,150.3 691.6,150.7 703.0,151.2 714.5,151.7 726.0,152.1 737.5,152.3 749.0,152.2 760.5,152.1 772.0,151.7" fill="none" stroke="#F5A623" stroke-width="1.8"/>
<line x1="612" y1="64" x2="638" y2="64" stroke="#4C8BF5" stroke-width="2"/>
<text x="644" y="68" font-size="12" fill="#333">输入：0.8·sin(2π·0.25n)+噪声</text>
<line x1="612" y1="84" x2="638" y2="84" stroke="#F5A623" stroke-width="2"/>
<text x="644" y="88" font-size="12" fill="#333">滤波输出</text>
<text x="48" y="288" font-size="12" fill="#333">样本序号 n（本段前64点）</text>
<text x="410.0" y="22" font-size="16" fill="#111" text-anchor="middle" font-weight="bold">第3段 高频正弦+噪声（阻带）→ 输出被显著衰减（低通滤波效果）</text>
<text x="48" y="40" font-size="12" fill="#666">幅度</text>
</svg>